<svg width="72" height="72" viewBox="0 0 72 72" fill="none" xmlns="http://www.w3.org/2000/svg">
<path fill-rule="evenodd" clip-rule="evenodd" d="M36 72C55.8288 72 72 55.8288 72 36C72 16.1748 55.8288 0 36 0C16.1748 0 6.00818e-07 16.1748 6.00818e-07 36C-0.0035994 55.8288 16.1712 72 36 72Z" fill="#23292F"/>
<path d="M52.9688 16.0801H59.9063L45.4688 30.4074C40.2403 35.5932 31.7634 35.5932 26.5313 30.4074L12.0881 16.0801H19.0313L30 26.9637C31.5982 28.5424 33.7519 29.4274 35.9958 29.4274C38.2397 29.4274 40.3934 28.5424 41.9916 26.9637L52.9688 16.0801Z" fill="white"/>
<path d="M18.9422 55.92H12L26.5312 41.5043C31.7597 36.3185 40.2366 36.3185 45.4688 41.5043L60 55.92H53.0625L42 44.948C40.4019 43.3694 38.2481 42.4844 36.0042 42.4844C33.7603 42.4844 31.6066 43.3694 30.0084 44.948L18.9422 55.92Z" fill="white"/>
</svg>
