<?xml version="1.0" standalone="no"?>
<!DOCTYPE svg PUBLIC "-//W3C//DTD SVG 20010904//EN"
 "http://www.w3.org/TR/2001/REC-SVG-20010904/DTD/svg10.dtd">
<svg version="1.0" xmlns="http://www.w3.org/2000/svg"
 width="256.000000pt" height="256.000000pt" viewBox="0 0 256.000000 256.000000"
 preserveAspectRatio="xMidYMid meet">
<metadata>
Created by potrace 1.14, written by Peter Selinger 2001-2017
</metadata>
<g transform="translate(0.000000,256.000000) scale(0.100000,-0.100000)"
fill="#000000" stroke="none">
<path d="M589 2503 c-47 -23 -46 -22 -64 -193 -1 -14 -6 -59 -9 -100 -4 -41
-9 -91 -11 -110 -5 -33 -10 -98 -20 -235 -3 -33 -7 -85 -10 -115 -2 -30 -7
-84 -11 -120 -3 -36 -7 -76 -9 -90 -2 -14 -6 -59 -10 -100 -3 -41 -8 -95 -10
-120 -2 -25 -7 -74 -10 -110 -3 -36 -8 -86 -11 -112 -6 -52 -3 -55 52 -63 22
-3 50 -8 64 -10 14 -3 57 -7 95 -11 39 -3 81 -7 95 -9 14 -2 54 -6 90 -10 l65
-6 23 41 c28 50 28 45 58 360 11 118 22 149 47 133 5 -3 32 -7 60 -9 29 -2 81
-6 117 -9 36 -3 92 -8 125 -10 33 -3 85 -8 115 -11 126 -14 140 -14 140 2 0 9
9 23 20 32 12 10 22 33 25 57 2 22 6 58 9 80 2 22 7 74 11 115 3 41 8 95 10
120 3 25 7 74 10 110 7 82 12 139 20 215 3 33 8 93 10 132 6 88 35 77 -255 98
-66 5 -151 13 -222 20 -55 6 -77 8 -218 20 -47 4 -103 8 -125 10 -74 7 -190
17 -215 19 -14 1 -37 -4 -51 -11z m539 -452 c1 -1 2 -25 2 -55 0 -43 -4 -56
-17 -60 -20 -6 -78 0 -93 9 -14 9 -12 89 2 103 10 10 74 12 106 3z"/>
<path d="M1087 1384 c-13 -26 -22 -72 -32 -174 -2 -19 -6 -53 -9 -75 -3 -22
-9 -67 -12 -99 -3 -33 -7 -67 -9 -76 -2 -8 -6 -42 -10 -75 -4 -32 -10 -72 -12
-89 -2 -17 -4 -38 -4 -46 -1 -8 -7 -62 -14 -120 -8 -58 -16 -130 -20 -160 -10
-100 -16 -145 -20 -180 -3 -19 -7 -55 -10 -80 -3 -25 -8 -61 -11 -81 -7 -45 5
-54 76 -63 83 -9 136 -16 235 -32 50 -8 95 -14 102 -14 17 0 51 78 57 130 3
25 8 62 11 83 9 63 13 100 21 161 3 33 8 67 9 75 2 9 4 20 4 24 1 7 31 5 111
-8 14 -3 48 -7 75 -11 28 -3 61 -7 75 -9 14 -2 54 -6 90 -10 77 -8 119 -14
141 -21 20 -6 66 52 73 92 9 53 26 188 42 329 3 33 8 71 9 85 2 14 6 52 10 85
7 70 10 96 24 190 6 38 7 73 3 77 -8 8 -32 12 -197 33 -27 3 -65 8 -82 11 -18
2 -57 7 -85 10 -29 3 -64 8 -78 10 -14 3 -43 7 -65 9 -22 3 -58 8 -80 11 -22
3 -62 8 -90 10 -27 2 -66 6 -85 9 -19 3 -78 8 -132 11 l-96 7 -15 -29z m492
-403 c7 -5 14 -26 15 -46 1 -34 -3 -40 -30 -51 -60 -25 -98 19 -68 78 15 29
53 38 83 19z"/>
</g>
</svg>
