<svg width="500" height="351" viewBox="0 0 500 351" fill="none" xmlns="http://www.w3.org/2000/svg">
<path d="M500 305.4H0V305.65H500V305.4Z" fill="#EBEBEB"/>
<path d="M449.9 321.49H428.22V321.74H449.9V321.49Z" fill="#EBEBEB"/>
<path d="M344.67 316.31H310.56V316.56H344.67V316.31Z" fill="#EBEBEB"/>
<path d="M441.12 312.21H396.59V312.46H441.12V312.21Z" fill="#EBEBEB"/>
<path d="M173.02 317.25H161.88V317.5H173.02V317.25Z" fill="#EBEBEB"/>
<path d="M152.97 317.25H114.58V317.5H152.97V317.25Z" fill="#EBEBEB"/>
<path d="M94.0101 313.03H66.3101V313.28H94.0101V313.03Z" fill="#EBEBEB"/>
<path d="M216.07 123.88L216.52 110.74L208.46 108.1C208.113 103.647 207.391 99.2313 206.3 94.9L213.14 89.9L208.5 77.56L200.04 78.2401C198.034 74.2642 195.692 70.4671 193.04 66.89L197.42 59.58L188.42 49.97L180.86 53.84C177.46 50.9342 173.828 48.312 170 46L171.22 37.6L159.22 32.16L153.72 38.6C149.477 37.2428 145.129 36.2393 140.72 35.6L138.72 27.37L125.54 26.92L122.94 34.99C118.491 35.3398 114.079 36.0589 109.75 37.14L104.67 30.34L92.3298 34.95L93.0098 43.41C89.0361 45.4464 85.2396 47.8113 81.6598 50.48L74.2998 46L64.6498 55L68.5198 62.6001C65.6132 65.9826 63.0035 69.6093 60.7198 73.44L52.3298 72.18L46.8498 84.18L53.3298 89.67C51.9629 93.9104 50.9593 98.2595 50.3298 102.67L41.9998 104.76L41.5498 117.9L49.6498 120.54C49.9849 124.99 50.7042 129.404 51.7998 133.73L44.9598 138.73L49.6098 151.08L58.0698 150.4C60.0705 154.379 62.4126 158.176 65.0698 161.75L60.6798 169.06L69.6798 178.67L77.2398 174.8C80.6304 177.705 84.2562 180.324 88.0798 182.63L86.8198 191.02L98.8198 196.47L104.35 190.03C108.593 191.4 112.941 192.42 117.35 193.08L119.35 201.31L132.53 201.76L135.13 193.69C139.581 193.336 143.996 192.617 148.33 191.54L153.33 198.34L165.67 193.73L165.03 185.27C168.996 183.221 172.792 180.857 176.38 178.2L183.65 182.58L193.3 173.58L189.43 165.98C192.337 162.598 194.947 158.971 197.23 155.14L205.62 156.4L211.1 144.4L204.62 138.9C206.01 134.663 207.03 130.313 207.67 125.9L216.07 123.88ZM127.28 166.45C116.968 166.102 106.991 162.703 98.6106 156.683C90.2305 150.664 83.824 142.294 80.2014 132.633C76.5788 122.972 75.9029 112.453 78.2592 102.408C80.6155 92.3628 85.8981 83.242 93.4388 76.1995C100.98 69.1569 110.44 64.509 120.622 62.8437C130.805 61.1783 141.253 62.5704 150.644 66.8438C160.035 71.1172 167.948 78.0799 173.382 86.8512C178.816 95.6225 181.526 105.808 181.17 116.12C180.695 129.94 174.752 143.005 164.646 152.443C154.54 161.881 141.1 166.92 127.28 166.45V166.45Z" fill="#EBEBEB"/>
<path d="M441 80.42L444.31 77.33L443 74.72C443.999 73.5505 444.899 72.2994 445.69 70.98L448.59 71.41L450.46 67.27L448.24 65.38C448.718 63.9162 449.069 62.414 449.29 60.89L452.14 60.18L452.28 55.64L449.5 54.74C449.378 53.2024 449.13 51.6773 448.76 50.18L451.11 48.43L449.51 44.18L446.6 44.41C445.898 43.0393 445.085 41.7282 444.17 40.49L445.68 37.99L442.57 34.67L439.97 36C438.799 35.003 437.548 34.1033 436.23 33.31L436.65 30.41L432.52 28.52L430.62 30.75C429.153 30.2933 427.652 29.9589 426.13 29.75L425.42 26.91L420.88 26.74L419.97 29.54C418.438 29.6571 416.919 29.9046 415.43 30.28L413.69 27.93L409.43 29.52L409.67 32.44C408.295 33.1349 406.984 33.9479 405.75 34.87L403.23 33.36L399.91 36.45L401.2 39C400.193 40.1661 399.29 41.4175 398.5 42.74L395.61 42.31L393.73 46.45L395.96 48.35C395.498 49.8116 395.163 51.3105 394.96 52.83L392.1 53.54L391.96 58.08L394.75 58.98C394.864 60.5179 395.108 62.0434 395.48 63.54L393.12 65.28L394.72 69.53L397.64 69.31C398.342 70.6807 399.154 71.9917 400.07 73.23L398.56 75.73L401.67 79.05L404.27 77.72C405.439 78.7202 406.69 79.6201 408.01 80.41L407.58 83.3L411.72 85.19L413.62 82.97C415.088 83.4219 416.589 83.7563 418.11 83.97L418.82 86.81L423.36 86.98L424.27 84.18C425.802 84.0636 427.321 83.816 428.81 83.44L430.55 85.79L434.81 84.2L434.58 81.28C435.951 80.5841 437.259 79.7711 438.49 78.85L441 80.42ZM417.38 61.29C416.507 60.3543 415.931 59.1806 415.725 57.9174C415.518 56.6541 415.692 55.3582 416.222 54.1934C416.753 53.0287 417.617 52.0475 418.705 51.374C419.794 50.7004 421.057 50.3648 422.337 50.4096C423.616 50.4544 424.853 50.8775 425.891 51.6255C426.93 52.3735 427.723 53.4128 428.171 54.6118C428.619 55.8108 428.701 57.1157 428.407 58.3614C428.113 59.6071 427.457 60.7376 426.52 61.61C425.898 62.1961 425.167 62.653 424.367 62.9544C423.568 63.2558 422.717 63.3957 421.863 63.3659C421.009 63.3362 420.17 63.1374 419.394 62.781C418.617 62.4247 417.919 61.9179 417.34 61.29H417.38Z" fill="#EBEBEB"/>
<path d="M320 215.34L309.66 208.19C308.646 204.467 307.252 200.858 305.5 197.42L308.15 187.02L293.15 170.96L282.59 172.89C279.277 170.905 275.769 169.267 272.12 168V168L265.7 157.19L243.7 156.44L236.56 166.78C232.841 167.793 229.236 169.184 225.8 170.93L215.4 168.28L199.34 183.28L201.27 193.82C199.287 197.14 197.652 200.655 196.39 204.31L185.58 210.73L184.83 232.73L195.18 239.87C196.177 243.613 197.568 247.24 199.33 250.69V250.69L196.65 261L211.65 277.06L222.14 275.14C225.478 277.127 229.009 278.769 232.68 280.04V280.04L239.09 290.83L261.09 291.59L268.22 281.25C271.972 280.237 275.611 278.843 279.08 277.09L289.42 279.73L305.49 264.73L303.56 254.19C305.549 250.87 307.185 247.351 308.44 243.69V243.69L319.25 237.27L320 215.34ZM251.55 248.73C246.666 248.563 241.941 246.952 237.973 244.1C234.005 241.248 230.971 237.283 229.256 232.707C227.541 228.131 227.221 223.15 228.337 218.392C229.453 213.634 231.955 209.314 235.526 205.978C239.097 202.642 243.576 200.44 248.399 199.65C253.221 198.859 258.17 199.517 262.619 201.539C267.068 203.561 270.817 206.857 273.393 211.01C275.969 215.163 277.255 219.986 277.09 224.87C276.861 231.42 274.041 237.612 269.251 242.085C264.461 246.559 258.091 248.949 251.54 248.73H251.55Z" fill="#EBEBEB"/>
<path d="M343.55 153H343.48L326.16 152.41C325.809 152.404 325.465 152.309 325.161 152.134C324.857 151.959 324.602 151.71 324.42 151.41L319.75 143.56C317.233 142.639 314.798 141.509 312.47 140.18L305 141.47C304.652 141.534 304.293 141.509 303.958 141.397C303.622 141.285 303.32 141.09 303.08 140.83L291.25 128.17C291.002 127.908 290.825 127.586 290.738 127.236C290.65 126.885 290.654 126.518 290.75 126.17L292.64 118.76C291.469 116.359 290.512 113.859 289.78 111.29L282.25 106.09C281.958 105.89 281.721 105.619 281.562 105.302C281.403 104.986 281.327 104.634 281.34 104.28L281.93 86.9601C281.942 86.6104 282.039 86.2689 282.213 85.9656C282.388 85.6622 282.634 85.4063 282.93 85.2201L290.8 80.5501C291.707 78.0389 292.835 75.6128 294.17 73.3001L292.79 65.7701C292.725 65.4205 292.75 65.0603 292.862 64.7229C292.974 64.3855 293.169 64.0818 293.43 63.8401L306.09 52.0201C306.352 51.7709 306.673 51.5931 307.023 51.5038C307.373 51.4145 307.741 51.4167 308.09 51.5101L315.53 53.4101C317.925 52.2385 320.418 51.2782 322.98 50.5401L328.18 43.0101C328.373 42.711 328.643 42.4689 328.961 42.3089C329.279 42.149 329.634 42.0769 329.99 42.1001L347.3 42.7001C347.652 42.7075 347.996 42.803 348.302 42.9776C348.608 43.1523 348.865 43.4006 349.05 43.7001L353.72 51.5601C356.219 52.4776 358.635 53.6084 360.94 54.9401L368.5 53.5501C368.848 53.4854 369.207 53.5102 369.542 53.6222C369.878 53.7341 370.18 53.9295 370.42 54.1901L382.25 66.8501C382.496 67.1134 382.672 67.4352 382.759 67.7852C382.847 68.1352 382.844 68.5017 382.75 68.8501L380.85 76.2801C382.021 78.6764 382.985 81.1689 383.73 83.7301L391.25 88.9301C391.542 89.1305 391.778 89.4016 391.938 89.7181C392.097 90.0346 392.173 90.3861 392.16 90.7401L391.57 108.05C391.558 108.401 391.461 108.744 391.286 109.049C391.112 109.354 390.866 109.612 390.57 109.8L382.7 114.47C381.786 116.976 380.659 119.398 379.33 121.71L380.71 129.25C380.775 129.598 380.75 129.957 380.638 130.293C380.526 130.629 380.33 130.93 380.07 131.17L367.33 143C367.068 143.248 366.746 143.425 366.395 143.512C366.045 143.6 365.678 143.596 365.33 143.5L357.93 141.61C355.519 142.776 353.013 143.736 350.44 144.48L345.29 152C345.104 152.297 344.849 152.543 344.545 152.718C344.242 152.892 343.9 152.989 343.55 153V153ZM327.46 148.23L342.46 148.74L347.46 141.55C347.737 141.13 348.162 140.831 348.65 140.71C351.464 139.941 354.194 138.892 356.8 137.58V137.58C357.254 137.361 357.771 137.308 358.26 137.43L365.26 139.22L376.26 128.97L375 121.74C374.903 121.235 374.995 120.711 375.26 120.27C376.745 117.794 377.968 115.17 378.91 112.44C379.069 111.945 379.403 111.526 379.85 111.26L387.38 106.8L387.89 91.8001L380.69 86.8001C380.311 86.5411 380.026 86.1654 379.88 85.7301C379.88 85.6801 379.88 85.6201 379.88 85.5601C379.109 82.796 378.064 80.116 376.76 77.5601C376.528 77.1026 376.472 76.5765 376.6 76.0801L378.4 69.0001L368.15 58.0001L360.96 59.3201C360.458 59.4111 359.94 59.3188 359.5 59.0601C357.019 57.5719 354.392 56.3421 351.66 55.3901C351.503 55.3399 351.352 55.2728 351.21 55.1901C350.922 55.0102 350.682 54.7632 350.51 54.4701L346 46.9201L331 46.4001L326 53.6101C325.702 54.0328 325.262 54.3344 324.76 54.4601C321.975 55.2211 319.274 56.2632 316.7 57.5701C316.246 57.8017 315.723 57.8586 315.23 57.7301L308.15 55.9301L297.15 66.1801L298.47 73.3501C298.548 73.8024 298.482 74.2678 298.28 74.6801L298.18 74.8501C296.693 77.3357 295.469 79.97 294.53 82.7101C294.364 83.1799 294.039 83.5764 293.61 83.8301L286.08 88.3001L285.57 103.3L292.78 108.3C293.191 108.581 293.489 109 293.62 109.48C294.369 112.288 295.412 115.01 296.73 117.6C296.801 117.748 296.858 117.902 296.9 118.06C296.975 118.389 296.975 118.731 296.9 119.06L295.1 126.06L305.35 137.06L312.49 135.75C312.989 135.659 313.504 135.751 313.94 136.01C316.44 137.495 319.083 138.725 321.83 139.68C322.325 139.827 322.745 140.161 323 140.61L327.46 148.23ZM336.73 129.26C336.36 129.26 335.99 129.26 335.62 129.26C327.307 129.114 319.388 125.69 313.587 119.734C307.786 113.778 304.573 105.771 304.646 97.4574C304.719 89.1436 308.073 81.1951 313.978 75.342C319.883 69.4889 327.861 66.205 336.175 66.205C344.489 66.205 352.467 69.4889 358.372 75.342C364.276 81.1951 367.63 89.1436 367.704 97.4574C367.777 105.771 364.563 113.778 358.762 119.734C352.961 125.69 345.043 129.114 336.73 129.26ZM336.73 70.1701C329.465 70.2953 322.544 73.2852 317.474 78.4887C312.403 83.6923 309.593 90.6882 309.656 97.9535C309.719 105.219 312.649 112.165 317.808 117.281C322.968 122.396 329.939 125.266 337.205 125.266C344.47 125.266 351.442 122.396 356.601 117.281C361.761 112.165 364.691 105.219 364.754 97.9535C364.816 90.6882 362.007 83.6923 356.936 78.4887C351.865 73.2852 344.944 70.2953 337.68 70.1701H336.73Z" fill="#EBEBEB"/>
<path d="M383.44 28.32L376.26 26.4L374.34 19.22L377.15 16.42L380.11 22.55L386.25 25.52L383.44 28.32Z" fill="#E0E0E0"/>
<path d="M383.88 23.5201C384.19 23.2095 384.437 22.8408 384.605 22.435C384.773 22.0292 384.86 21.5943 384.86 21.1551C384.86 20.7158 384.773 20.2809 384.605 19.8751C384.437 19.4693 384.19 19.1006 383.88 18.7901C383.569 18.4795 383.201 18.2331 382.795 18.065C382.389 17.897 381.954 17.8104 381.515 17.8104C381.076 17.8104 380.641 17.897 380.235 18.065C379.829 18.2331 379.46 18.4795 379.15 18.7901L382.72 13.4301L387.5 15.8501L388.55 20.8501L383.88 23.5201Z" fill="#E0E0E0"/>
<path d="M376.58 17L381.84 11.74L389 13.65L390.93 20.82L385.67 26.08L378.5 24.15L376.58 17ZM386.13 21.3C386.598 20.8314 386.917 20.2344 387.046 19.5847C387.175 18.9349 387.108 18.2615 386.855 17.6496C386.601 17.0377 386.172 16.5147 385.621 16.1467C385.07 15.7788 384.423 15.5824 383.76 15.5824C383.098 15.5824 382.45 15.7788 381.899 16.1467C381.348 16.5147 380.919 17.0377 380.665 17.6496C380.412 18.2615 380.345 18.9349 380.474 19.5847C380.603 20.2344 380.922 20.8314 381.39 21.3C382.024 21.9215 382.877 22.2679 383.764 22.2642C384.652 22.2604 385.502 21.9068 386.13 21.28V21.3Z" fill="#F0F0F0"/>
<path d="M90.22 219.71L94.07 218.67L95.1 214.82L93.6 213.32L92.01 216.61L88.71 218.2L90.22 219.71Z" fill="#E0E0E0"/>
<path d="M89.9999 217.13C89.6991 216.786 89.5401 216.341 89.5552 215.885C89.5703 215.428 89.7584 214.994 90.0814 214.671C90.4044 214.348 90.8381 214.16 91.2946 214.145C91.7511 214.13 92.1963 214.289 92.5399 214.59L90.6299 211.72L87.9999 213L87.4399 215.7L89.9999 217.13Z" fill="#E0E0E0"/>
<path d="M93.9 213.62L91.08 210.8L87.23 211.8L86.23 215.65L89 218.5L92.85 217.5L93.9 213.62ZM88.78 215.93C88.5946 215.768 88.4445 215.569 88.339 215.346C88.2335 215.124 88.1749 214.882 88.1667 214.635C88.1585 214.389 88.201 214.144 88.2915 213.915C88.3821 213.685 88.5187 213.477 88.6929 213.303C88.8672 213.129 89.0753 212.992 89.3045 212.902C89.5337 212.811 89.779 212.769 90.0253 212.777C90.2716 212.785 90.5136 212.844 90.7363 212.949C90.959 213.055 91.1577 213.205 91.32 213.39C91.6209 213.734 91.7799 214.179 91.7647 214.635C91.7496 215.092 91.5615 215.526 91.2385 215.849C90.9155 216.172 90.4818 216.36 90.0253 216.375C89.5688 216.39 89.1236 216.231 88.78 215.93V215.93Z" fill="#F0F0F0"/>
<path d="M76.3602 8.66001L79.5602 11.86C79.9604 12.2533 80.499 12.4737 81.0602 12.4737C81.6213 12.4737 82.16 12.2533 82.5602 11.86V11.86C82.9511 11.4586 83.1699 10.9204 83.1699 10.36C83.1699 9.79966 82.9511 9.26145 82.5602 8.86001L79.3702 5.67001C78.9687 5.27906 78.4305 5.0603 77.8702 5.0603C77.3098 5.0603 76.7716 5.27906 76.3702 5.67001V5.67001C75.9785 6.06846 75.7582 6.60427 75.7564 7.16297C75.7545 7.72167 75.9712 8.25895 76.3602 8.66001Z" fill="#F0F0F0"/>
<path d="M74.1102 0.710036C74.9452 0.477839 75.8299 0.494537 76.6556 0.758086C77.4812 1.02163 78.212 1.52056 78.758 2.1936C79.3041 2.86664 79.6418 3.68449 79.7295 4.54674C79.8173 5.409 79.6514 6.27811 79.2521 7.04737C78.8528 7.81663 78.2376 8.45256 77.482 8.87706C76.7263 9.30156 75.8632 9.49617 74.9985 9.43698C74.1338 9.37779 73.3052 9.06738 72.6145 8.54387C71.9238 8.02036 71.4009 7.30653 71.1102 6.49003C70.9256 5.9136 70.8569 5.30635 70.908 4.70325C70.959 4.10014 71.1288 3.51309 71.4077 2.97587C71.6865 2.43866 72.0688 1.9619 72.5326 1.57303C72.9965 1.18417 73.5326 0.890875 74.1102 0.710036V0.710036Z" fill="#E0E0E0"/>
<path d="M70.6296 5.95469L71.0928 7.24402L80.5981 3.8294L80.1349 2.54007L70.6296 5.95469Z" fill="#F0F0F0"/>
<path d="M250 350.56C357.082 350.56 443.89 345.492 443.89 339.24C443.89 332.988 357.082 327.92 250 327.92C142.917 327.92 56.1099 332.988 56.1099 339.24C56.1099 345.492 142.917 350.56 250 350.56Z" fill="#F5F5F5"/>
<path d="M86.7202 43.65C85.7202 39.24 86.1602 35.5399 88.0602 32.5199C89.9602 29.4999 93.0602 27.5199 97.4702 26.5199C101.88 25.5199 105.69 25.92 108.67 27.78C111.65 29.64 113.67 32.78 114.67 37.08C115.376 39.734 115.434 42.5187 114.84 45.1999C114.259 47.4267 113.03 49.4311 111.31 50.96C109.267 52.6801 106.815 53.8443 104.19 54.3399C101.617 55.023 98.9236 55.1153 96.3102 54.61C94.0385 54.0579 91.9838 52.839 90.4102 51.11C88.5302 49.0014 87.2553 46.4238 86.7202 43.65V43.65ZM95.0602 41.79C95.6802 44.51 96.6302 46.3499 97.9102 47.3099C98.5709 47.7505 99.3139 48.0529 100.095 48.199C100.875 48.345 101.677 48.3317 102.453 48.1598C103.228 47.9879 103.96 47.6611 104.606 47.1988C105.252 46.7365 105.798 46.1485 106.21 45.47C106.93 44.08 106.94 41.87 106.26 38.86C105.68 36.32 104.744 34.58 103.45 33.64C102.799 33.1726 102.051 32.8572 101.262 32.717C100.473 32.5768 99.6625 32.6154 98.8902 32.83C98.1172 32.9747 97.3872 33.2929 96.755 33.7606C96.1227 34.2282 95.6048 34.8332 95.2402 35.53C94.5002 37 94.4302 39 95.0602 41.79Z" fill="#263238"/>
<path d="M118.59 40.3499C118.235 38.9871 118.172 37.5647 118.404 36.1757C118.637 34.7867 119.161 33.4626 119.94 32.2899C120.815 31.0441 121.926 29.9831 123.212 29.168C124.497 28.3529 125.931 27.7996 127.43 27.5399C131.344 26.6532 134.557 27.1166 137.07 28.9299C139.186 30.5696 140.624 32.9301 141.11 35.5617C141.597 38.1933 141.099 40.912 139.71 43.1999C138.15 45.5799 135.61 47.1666 132.09 47.9599C129.379 48.7181 126.485 48.4841 123.93 47.2999C122.564 46.6322 121.371 45.6573 120.445 44.4516C119.518 43.2458 118.884 41.8419 118.59 40.3499V40.3499ZM126.1 38.6199C126.303 40.0173 126.985 41.3007 128.03 42.2499C128.445 42.5635 128.922 42.7832 129.43 42.8936C129.938 43.004 130.464 43.0026 130.971 42.8893C131.478 42.7761 131.955 42.5538 132.367 42.2379C132.78 41.922 133.119 41.52 133.36 41.0599C133.884 39.7167 133.933 38.235 133.5 36.8599C133.29 35.4953 132.615 34.245 131.59 33.3199C131.193 32.9974 130.726 32.771 130.226 32.6583C129.727 32.5456 129.208 32.5495 128.71 32.6699C128.192 32.7774 127.704 33.0017 127.285 33.3257C126.865 33.6497 126.525 34.065 126.29 34.5399C125.752 35.8358 125.685 37.2795 126.1 38.6199Z" fill="#263238"/>
<path d="M148.58 51.57L142.45 24.57L149.45 22.97L150.11 25.86C150.604 24.7074 151.321 23.664 152.22 22.79C153.207 21.9525 154.385 21.372 155.65 21.1C156.819 20.782 158.05 20.7637 159.228 21.0468C160.406 21.33 161.493 21.9054 162.39 22.72C164.367 24.5676 165.707 26.9935 166.22 29.65C166.96 32.9 166.74 35.56 165.58 37.65C165.028 38.6492 164.266 39.5165 163.346 40.1917C162.425 40.8669 161.369 41.3338 160.25 41.56C159.172 41.8155 158.055 41.8597 156.96 41.69C155.91 41.506 154.909 41.1078 154.02 40.52L156.14 49.85L148.58 51.57ZM152.19 32.71C152.374 33.9589 152.998 35.101 153.95 35.93C154.332 36.2223 154.775 36.4245 155.246 36.5215C155.717 36.6185 156.204 36.6077 156.67 36.49C157.103 36.4032 157.51 36.2159 157.857 35.9432C158.205 35.6705 158.483 35.32 158.67 34.92C159.095 33.6684 159.095 32.3115 158.67 31.06C158.487 29.8048 157.885 28.6485 156.96 27.78C156.617 27.4952 156.214 27.2929 155.78 27.1889C155.347 27.0849 154.895 27.0818 154.46 27.18C154.001 27.2792 153.57 27.4809 153.199 27.77C152.829 28.0592 152.528 28.4284 152.32 28.85C151.831 30.0827 151.785 31.4471 152.19 32.71Z" fill="#263238"/>
<path d="M169.43 33.2999L176.71 30.9099C177.097 31.6137 177.7 32.1746 178.43 32.5099C179.216 32.7374 180.047 32.7556 180.842 32.5626C181.636 32.3696 182.367 31.9723 182.96 31.4099C183.126 31.2335 183.247 31.0192 183.311 30.7857C183.376 30.5522 183.382 30.3065 183.33 30.0699C183.27 29.7992 183.13 29.5526 182.929 29.362C182.728 29.1713 182.474 29.0452 182.2 28.9999C181.07 28.8759 179.93 28.8759 178.8 28.9999C176.904 29.1612 174.997 29.1612 173.1 28.9999C171.99 28.8388 170.949 28.3634 170.1 27.6299C169.195 26.8462 168.569 25.7887 168.318 24.6177C168.068 23.4467 168.205 22.2258 168.71 21.1399C169.293 19.978 170.2 19.0092 171.32 18.3499C172.915 17.4437 174.648 16.8052 176.45 16.4599C178.17 15.9931 179.949 15.7775 181.73 15.8199C182.849 15.892 183.934 16.2352 184.89 16.8199C185.91 17.5076 186.775 18.3998 187.43 19.4399L180.43 21.7499C180.169 21.2289 179.734 20.8152 179.2 20.5799C178.471 20.319 177.68 20.2841 176.93 20.4799C176.268 20.5723 175.654 20.8776 175.18 21.3499C175.03 21.5109 174.921 21.7063 174.864 21.9189C174.806 22.1316 174.802 22.3551 174.85 22.5699C174.904 22.8064 175.029 23.0209 175.208 23.1851C175.386 23.3493 175.61 23.4556 175.85 23.4899C176.968 23.6197 178.099 23.5961 179.21 23.4199C181.139 23.1405 183.095 23.1136 185.03 23.3399C186.248 23.5119 187.388 24.0368 188.31 24.8499C189.144 25.6061 189.724 26.6015 189.97 27.6999C190.226 28.8777 190.133 30.1048 189.7 31.2299C189.172 32.562 188.251 33.7022 187.06 34.4999C185.306 35.6465 183.341 36.4318 181.28 36.8099C177.714 37.6233 175.047 37.6933 173.28 37.0199C171.559 36.3325 170.176 34.9967 169.43 33.2999V33.2999Z" fill="#263238"/>
<path d="M193.85 8.56995H202.06V14.8699L200.55 27.5399H195.47L193.85 14.8899V8.56995ZM194.25 29.4499H201.91V36.2299H194.25V29.4499Z" fill="#263238"/>
<path d="M128.68 94.5799H128.5C124 92.8299 121.31 91.1299 119.91 89.0799C118.814 89.2876 117.68 89.1331 116.68 88.6399C115.508 88.0663 114.536 87.1534 113.89 86.0199C113.55 86.2805 113.15 86.451 112.727 86.5157C112.304 86.5804 111.872 86.5371 111.47 86.3899C110.237 85.9288 109.186 85.0839 108.47 83.9799C108.022 84.3135 107.465 84.4669 106.91 84.4099C103.91 84.1699 99.9098 78.2499 99.6198 71.9499C99.6168 71.8169 99.6649 71.6879 99.7542 71.5893C99.8435 71.4907 99.9671 71.4301 100.1 71.4199C100.165 71.4172 100.231 71.4275 100.293 71.4502C100.354 71.4729 100.411 71.5075 100.459 71.5521C100.508 71.5967 100.547 71.6503 100.574 71.71C100.602 71.7697 100.617 71.8342 100.62 71.8999C100.9 77.8999 104.73 83.2299 107 83.4099C107.165 83.4284 107.332 83.4141 107.492 83.3678C107.651 83.3215 107.8 83.244 107.93 83.1399C107.148 81.7141 106.657 80.1473 106.485 78.5302C106.313 76.9131 106.464 75.278 106.93 73.7199C107.79 70.7199 108.55 69.5399 109.47 69.7199C111.19 70.1499 110.96 76.7199 110.05 81.0099C109.912 81.7836 109.627 82.5237 109.21 83.1899C109.799 84.1784 110.689 84.9527 111.75 85.3999C112.032 85.5075 112.34 85.5317 112.636 85.4697C112.932 85.4077 113.204 85.262 113.42 85.0499C112.64 83.1199 112.42 80.4799 113.54 77.1199C114.94 72.6899 115.54 72.5699 115.85 72.4899C115.966 72.4654 116.087 72.4729 116.2 72.5116C116.313 72.5504 116.413 72.6189 116.49 72.7099C117.42 73.7599 116.31 80.6399 115.15 84.0399C115.014 84.4491 114.826 84.839 114.59 85.1999C115.126 86.2815 116 87.159 117.08 87.6999C117.788 88.0442 118.575 88.1926 119.36 88.1299C119.27 87.9399 119.19 87.7499 119.11 87.5499C118.32 85.3999 118.71 82.9299 120.3 79.9699C121.35 78.0199 122.21 77.0999 123.01 77.0999C123.222 77.1027 123.429 77.1664 123.606 77.2834C123.784 77.4004 123.924 77.5657 124.01 77.7599C124.88 79.3699 124.25 84.6799 122.53 87.3199C122.127 87.9251 121.567 88.4091 120.91 88.7199C122.25 90.4799 124.8 92.0299 128.91 93.6099C128.971 93.6321 129.028 93.6664 129.076 93.7109C129.124 93.7553 129.163 93.809 129.19 93.8686C129.217 93.9283 129.232 93.9928 129.233 94.0583C129.235 94.1237 129.224 94.1889 129.2 94.2499C129.161 94.3541 129.089 94.4427 128.995 94.5022C128.901 94.5618 128.791 94.5891 128.68 94.5799ZM123 78.1099C123 78.1099 122.43 78.1099 121.17 80.4599C119.72 83.1399 119.35 85.3499 120.04 87.2099C120.123 87.4402 120.224 87.6641 120.34 87.8799C120.881 87.6561 121.342 87.2723 121.66 86.7799C123.06 84.6399 123.73 80.2399 123.21 78.5199C123.14 78.1699 123 78.1099 123 78.1099ZM115.82 73.8999C115.278 75.0384 114.83 76.2189 114.48 77.4299C113.713 79.5286 113.581 81.8066 114.1 83.9799L114.19 83.7199C115.24 80.5502 115.8 77.2386 115.85 73.8999H115.82ZM109.24 70.7499C109.07 70.8999 108.58 71.5299 107.89 73.9699C107.074 76.7082 107.331 79.6546 108.61 82.2099C108.815 81.7628 108.966 81.2928 109.06 80.8099C110.13 75.8999 109.83 71.4599 109.27 70.7499H109.24Z" fill="#263238"/>
<path d="M166.7 147C165.101 147.015 163.527 146.605 162.14 145.81C162.026 145.741 161.943 145.631 161.909 145.502C161.875 145.373 161.894 145.236 161.96 145.12C161.993 145.064 162.037 145.014 162.089 144.975C162.141 144.936 162.201 144.908 162.264 144.892C162.327 144.876 162.393 144.873 162.458 144.883C162.522 144.893 162.584 144.916 162.64 144.95C166.21 147.04 170.82 145.58 171.77 144.05C171.838 143.954 171.887 143.845 171.913 143.73C171.939 143.615 171.941 143.496 171.92 143.38C170.094 143.485 168.287 142.97 166.79 141.92C164.24 140.33 164.04 139.85 164.06 139.47C164.065 139.361 164.099 139.255 164.159 139.163C164.218 139.072 164.302 138.998 164.4 138.95C165.4 138.45 169.91 140.52 171.79 141.76C172.015 141.91 172.223 142.084 172.41 142.28C173.148 142.112 173.814 141.713 174.31 141.14C174.589 140.812 174.79 140.426 174.9 140.01H174.7C173.1 140.17 171.5 139.48 169.79 137.9C168.61 136.82 168.16 136.07 168.31 135.48C168.355 135.314 168.447 135.165 168.575 135.05C168.702 134.934 168.86 134.858 169.03 134.83C170.41 134.48 173.83 135.94 175.22 137.47C175.53 137.803 175.75 138.209 175.86 138.65C177.17 138.04 178.55 136.65 180.18 134.38C180.218 134.326 180.266 134.28 180.322 134.244C180.377 134.209 180.44 134.185 180.505 134.174C180.57 134.163 180.636 134.165 180.701 134.179C180.765 134.194 180.826 134.222 180.88 134.26C180.987 134.338 181.059 134.455 181.082 134.586C181.104 134.716 181.075 134.851 181 134.96C179.11 137.6 177.53 139.1 175.95 139.71C175.868 140.449 175.565 141.146 175.08 141.71C174.504 142.38 173.747 142.869 172.9 143.12C172.947 143.359 172.947 143.604 172.899 143.843C172.851 144.082 172.756 144.308 172.62 144.51C171.78 145.94 169.36 147 166.7 147ZM165.81 140.06C166.15 140.31 166.63 140.64 167.32 141.06C168.395 141.785 169.63 142.238 170.92 142.38C169.31 141.415 167.596 140.636 165.81 140.06V140.06ZM169.3 135.81C169.587 136.351 169.986 136.825 170.47 137.2C171.95 138.57 173.3 139.2 174.6 139.04H174.92C174.849 138.729 174.697 138.443 174.48 138.21C173.08 136.63 170 135.65 169.3 135.81Z" fill="#263238"/>
<path d="M179.94 145.63L164.36 148.46L150.21 71.24L120.15 76.7L71.1499 163.7L76.4099 192.41L139.26 181L143.56 204.48L173.62 199L169.32 175.52L184.9 172.69L179.94 145.63ZM101.09 160L127.09 114.43L134.34 153.97L101.09 160Z" fill="#41A4FF"/>
<path d="M305.43 65.9999C304.957 61.1456 303.882 56.369 302.23 51.7799C300.531 47.3841 298.17 43.2734 295.23 39.5899C291.75 35.3046 287.427 31.7786 282.53 29.2299C277.197 26.3033 270.123 24.2666 261.31 23.1199C243.01 20.7333 228.75 23.9799 218.53 32.8599C208.31 41.7399 201.577 58.7399 198.33 83.8599C197.034 93.248 196.699 102.744 197.33 112.2C197.997 120.867 199.59 127.843 202.11 133.13C205.317 140.259 210.376 146.399 216.76 150.91C223.073 155.343 231.74 158.273 242.76 159.7C262.347 162.253 276.87 158.49 286.33 148.41C295.79 138.33 302.057 121.297 305.13 97.3099C306.496 86.9238 306.597 76.4103 305.43 65.9999V65.9999Z" fill="#41A4FF"/>
<path d="M251.77 149.43C249.36 149.35 246.77 149.13 244.16 148.79C235 147.6 227.92 145.28 223.1 141.9C218.293 138.506 214.493 133.876 212.1 128.5L212.05 128.39C210.13 124.39 208.87 118.64 208.32 111.39C207.737 102.681 208.046 93.9359 209.24 85.2899C212.81 57.5699 220.18 45.9999 225.73 41.1799C232.21 35.5599 240.96 33.0199 252.46 33.4199C254.82 33.4999 257.32 33.7099 259.89 34.0399C267.27 35.0399 273.12 36.6399 277.26 38.8999C280.837 40.7422 284.004 43.2901 286.57 46.3899C288.815 49.1896 290.619 52.3156 291.92 55.6599C293.249 59.389 294.109 63.2687 294.48 67.2099C295.547 76.7597 295.449 86.4036 294.19 95.9299C291.42 117.47 286.06 132.61 278.27 140.93C272.49 147.09 263.82 149.93 251.76 149.47L251.77 149.43Z" fill="#263238"/>
<path d="M271.34 66.2899L271.47 62.4999L269.14 61.74C269.041 60.4581 268.833 59.1869 268.52 57.9399L270.52 56.4799L269.18 52.9199L266.74 53.1199C266.166 51.9758 265.497 50.8819 264.74 49.8499L266 47.7399L263.4 44.9699L261.22 46.0899C260.244 45.2513 259.201 44.4954 258.1 43.8299L258.45 41.41L254.99 39.8399L253.41 41.6999C252.186 41.3034 250.932 41.0091 249.66 40.8199L249.07 38.4499L245.27 38.3199L244.52 40.6399C243.238 40.7425 241.967 40.9499 240.72 41.2599L239.25 39.2599L235.69 40.5899L235.89 43.0299C234.746 43.6042 233.652 44.2732 232.62 45.0299L230.52 43.7599L227.74 46.3499L228.86 48.5399C228.019 49.5147 227.266 50.5622 226.61 51.6699L224.19 51.2999L222.61 54.7599L224.48 56.3399C224.074 57.5642 223.779 58.8227 223.6 60.1L221.22 60.6999L221.09 64.4799L223.42 65.24C223.517 66.5253 223.725 67.8 224.04 69.0499L222.04 70.4999L223.38 74.0599L225.82 73.8599C226.388 75.0073 227.057 76.1016 227.82 77.13L226.55 79.24L229.15 82.0099L231.33 80.8999C232.305 81.7354 233.349 82.488 234.45 83.1499L234.09 85.57L237.55 87.1399L239.14 85.2899C240.367 85.6842 241.624 85.9752 242.9 86.16L243.49 88.5399L247.28 88.6699L248.03 86.3399C249.315 86.2423 250.59 86.0349 251.84 85.7199L253.29 87.7199L256.85 86.3899L256.66 83.96C257.8 83.3783 258.893 82.7097 259.93 81.96L262.03 83.2199L264.81 80.63L263.7 78.4399C264.538 77.4685 265.287 76.4243 265.94 75.32L268.36 75.6799L269.94 72.2199L268.08 70.6399C268.478 69.4175 268.769 68.1628 268.95 66.8899L271.34 66.2899ZM245.74 78.5599C242.778 78.4517 239.915 77.4685 237.511 75.7344C235.107 74.0002 233.272 71.5929 232.235 68.8162C231.198 66.0396 231.007 63.0181 231.687 60.1331C232.366 57.2481 233.884 54.629 236.05 52.6062C238.217 50.5835 240.934 49.2479 243.859 48.7679C246.783 48.288 249.785 48.6852 252.484 49.9095C255.183 51.1338 257.459 53.1303 259.024 55.6469C260.59 58.1636 261.375 61.0876 261.28 64.0499C261.217 66.0245 260.764 67.967 259.948 69.7661C259.132 71.5652 257.969 73.1854 256.525 74.5337C255.081 75.8819 253.385 76.9316 251.534 77.6226C249.683 78.3135 247.714 78.6321 245.74 78.5599V78.5599Z" fill="#41A4FF"/>
<path opacity="0.3" d="M287.12 135.87L287.4 133.31L285.86 132.69C285.857 131.819 285.784 130.949 285.64 130.09L287.03 129.2L286.32 126.73H284.66C284.332 125.927 283.933 125.154 283.47 124.42L284.41 123.06L282.81 121.06L281.28 121.7C280.66 121.087 279.991 120.525 279.28 120.02L279.65 118.4L277.4 117.16L276.22 118.35C275.416 118.019 274.587 117.755 273.74 117.56L273.46 115.93L270.91 115.64L270.28 117.18C269.411 117.184 268.544 117.264 267.69 117.42L266.8 116L264.33 116.73V118.39C263.526 118.722 262.753 119.123 262.02 119.59L260.66 118.59L258.66 120.19L259.3 121.72C258.69 122.34 258.132 123.009 257.63 123.72L256.01 123.36L254.78 125.61L255.96 126.78C255.625 127.585 255.36 128.419 255.17 129.27L253.53 129.54L253.26 132.09L254.79 132.73C254.791 133.595 254.867 134.458 255.02 135.31L253.61 136.2L254.33 138.67H256C256.334 139.469 256.735 140.239 257.2 140.97L256.2 142.33L257.8 144.33L259.35 143.68C259.965 144.295 260.635 144.854 261.35 145.35L261 147L263.25 148.23L264.42 147.06C265.224 147.383 266.054 147.64 266.9 147.83L267.19 149.47L269.74 149.75L270.36 148.22C271.244 148.219 272.127 148.145 273 148L273.89 149.41L276.35 148.69V147.03C277.154 146.692 277.929 146.291 278.67 145.83L280.01 146.83L282.01 145.22L281.36 143.69C281.976 143.07 282.541 142.401 283.05 141.69L284.66 142.05L285.9 139.8L284.72 138.64C285.041 137.835 285.299 137.006 285.49 136.16L287.12 135.87ZM274.25 134.87C273.827 135.644 273.183 136.275 272.401 136.684C271.619 137.093 270.734 137.26 269.856 137.165C268.979 137.07 268.15 136.717 267.473 136.151C266.797 135.584 266.303 134.83 266.056 133.983C265.808 133.136 265.817 132.235 266.081 131.393C266.346 130.552 266.854 129.807 267.542 129.255C268.23 128.702 269.066 128.366 269.945 128.288C270.824 128.211 271.706 128.396 272.48 128.82C273.514 129.39 274.281 130.346 274.613 131.48C274.944 132.613 274.814 133.832 274.25 134.87V134.87Z" fill="#41A4FF"/>
<path d="M301.29 92.6499L298.29 90.5899C297.995 89.519 297.593 88.4805 297.09 87.4899L297.85 84.4899L293.53 79.8599L290.53 80.4199C289.578 79.8533 288.573 79.3811 287.53 79.0099V79.0099L285.68 75.8899L279.35 75.6799L277.29 78.6799C276.218 78.9707 275.179 79.3729 274.19 79.8799L271.19 79.1099L266.56 83.4399L267.12 86.4399C266.545 87.3873 266.073 88.3929 265.71 89.4399L262.6 91.2899L262.38 97.6199L265.38 99.6799C265.671 100.759 266.073 101.804 266.58 102.8V102.8L265.82 105.8L270.14 110.43L273.14 109.88C274.092 110.446 275.097 110.918 276.14 111.29V111.29L277.98 114.4L284.32 114.62L286.37 111.62C287.451 111.327 288.5 110.924 289.5 110.42V110.42L292.5 111.18L297.13 106.86L296.58 103.86C297.148 102.909 297.621 101.904 297.99 100.86V100.86L301.1 99.0099L301.29 92.6499ZM281.56 102.27C280.152 102.222 278.791 101.757 277.648 100.935C276.504 100.113 275.63 98.97 275.136 97.6512C274.642 96.3324 274.551 94.8967 274.873 93.5258C275.195 92.1548 275.916 90.9102 276.946 89.9492C277.975 88.9883 279.267 88.3542 280.656 88.1272C282.046 87.9002 283.472 88.0905 284.754 88.6739C286.036 89.2574 287.116 90.2078 287.857 91.405C288.599 92.6023 288.969 93.9925 288.92 95.3999C288.852 97.286 288.039 99.0682 286.66 100.356C285.28 101.644 283.446 102.332 281.56 102.27V102.27Z" fill="white"/>
<path d="M323 42.12L323.52 40.87C323.873 40.6707 324.208 40.4398 324.52 40.18H325.68L327.04 38.18L326.6 37.11C326.768 36.7536 326.902 36.3819 327 36V36L328 35.08L327.58 32.73L326.32 32.21C326.122 31.8554 325.891 31.5205 325.63 31.21V30.05L323.68 28.69L322.6 29.14C322.205 29.0009 321.796 28.907 321.38 28.86L320.46 27.86L318.12 28.28L317.59 29.54C317.219 29.7324 316.867 29.9601 316.54 30.22V30.22H315.39L314.03 32.22L314.47 33.29C314.336 33.6861 314.242 34.0949 314.19 34.51L313.19 35.44L313.61 37.78L314.87 38.3C315.061 38.6564 315.289 38.9916 315.55 39.3V39.3V40.45L317.55 41.81L318.62 41.37C319.02 41.5 319.432 41.5904 319.85 41.64V41.64L320.77 42.64L323 42.12ZM318 35.64C317.905 35.1182 317.968 34.5801 318.179 34.0938C318.39 33.6075 318.741 33.1948 319.187 32.908C319.633 32.6211 320.154 32.473 320.685 32.4825C321.215 32.4919 321.73 32.6584 322.166 32.9609C322.601 33.2634 322.937 33.6883 323.131 34.1818C323.325 34.6753 323.368 35.2153 323.255 35.7334C323.142 36.2514 322.878 36.7243 322.496 37.0922C322.114 37.4601 321.632 37.7064 321.11 37.8C320.411 37.9225 319.693 37.7644 319.111 37.3599C318.528 36.9554 318.129 36.3372 318 35.64V35.64Z" fill="#41A4FF"/>
<path d="M295.61 35.49L294.84 34.84C296.49 32.7933 298.529 31.0939 300.84 29.84L301.31 30.72C299.112 31.9164 297.175 33.5378 295.61 35.49V35.49Z" fill="#41A4FF"/>
<path d="M303.59 29.7999L303.2 28.8799C306.892 27.2752 310.931 26.6285 314.94 26.9999L314.84 27.9999C310.998 27.6378 307.127 28.2572 303.59 29.7999V29.7999Z" fill="#41A4FF"/>
<path d="M301.7 36.7199L300.88 36.1599C303.289 32.9065 306.795 30.6364 310.75 29.7699L310.94 30.7699C307.244 31.5769 303.964 33.6895 301.7 36.7199V36.7199Z" fill="#41A4FF"/>
<path d="M235.34 133C235.204 132.996 235.074 132.938 234.98 132.84L232.89 130.68C231.824 130.583 230.77 130.389 229.74 130.1L226.47 131.54C226.398 131.579 226.317 131.6 226.235 131.6C226.153 131.6 226.072 131.579 226 131.54L220.52 127.91C220.449 127.863 220.392 127.799 220.353 127.724C220.315 127.649 220.296 127.564 220.3 127.48V123.92C219.631 123.083 219.042 122.186 218.54 121.24L215.73 120.16C215.651 120.129 215.582 120.079 215.527 120.015C215.473 119.95 215.436 119.873 215.42 119.79L214.12 113.35C214.103 113.268 214.107 113.182 214.131 113.102C214.156 113.022 214.2 112.949 214.26 112.89L216.42 110.8C216.523 109.735 216.717 108.681 217 107.65L215.56 104.38C215.521 104.308 215.5 104.227 215.5 104.145C215.5 104.063 215.521 103.982 215.56 103.91L219.19 98.4299C219.235 98.3577 219.299 98.2992 219.375 98.2604C219.45 98.2217 219.535 98.2042 219.62 98.2099L223.18 98.2599C224.014 97.5877 224.912 96.9983 225.86 96.4999L226.95 93.6899C226.979 93.6119 227.027 93.5426 227.09 93.4883C227.153 93.4341 227.229 93.3968 227.31 93.3799L233.75 92.0799C233.832 92.0617 233.918 92.0651 233.998 92.0896C234.079 92.1141 234.152 92.159 234.21 92.2199L236.3 94.3799C237.369 94.4774 238.426 94.6715 239.46 94.9599L242.72 93.5199C242.794 93.4805 242.876 93.4599 242.96 93.4599C243.044 93.4599 243.126 93.4805 243.2 93.5199L248.67 97.1499C248.739 97.1985 248.796 97.2627 248.836 97.3374C248.876 97.4121 248.898 97.4952 248.9 97.5799L248.84 101.14C249.512 101.976 250.105 102.873 250.61 103.82L253.41 104.91C253.488 104.939 253.557 104.987 253.612 105.05C253.666 105.113 253.703 105.189 253.72 105.27L255.03 111.71C255.045 111.792 255.041 111.877 255.016 111.957C254.992 112.037 254.949 112.11 254.89 112.17L252.72 114.27C252.62 115.332 252.426 116.382 252.14 117.41L253.58 120.68C253.619 120.754 253.64 120.836 253.64 120.92C253.64 121.004 253.619 121.086 253.58 121.16L250 126.59C249.953 126.658 249.89 126.713 249.817 126.752C249.744 126.79 249.663 126.81 249.58 126.81L246.01 126.76C245.173 127.423 244.279 128.012 243.34 128.52L242.25 131.33C242.22 131.409 242.171 131.479 242.106 131.534C242.041 131.588 241.963 131.625 241.88 131.64L235.44 133H235.34ZM229.71 129C229.756 128.991 229.804 128.991 229.85 129C230.93 129.314 232.039 129.519 233.16 129.61C233.28 129.624 233.392 129.677 233.48 129.76L235.48 131.86L241.38 130.67L242.44 127.93C242.489 127.819 242.574 127.728 242.68 127.67C243.679 127.153 244.621 126.533 245.49 125.82C245.582 125.742 245.7 125.703 245.82 125.71L249.29 125.76L252.61 120.76L251.21 117.58C251.17 117.47 251.17 117.35 251.21 117.24C251.519 116.159 251.724 115.05 251.82 113.93C251.83 113.809 251.883 113.695 251.97 113.61L254.07 111.61L252.88 105.71L250.15 104.65C250.033 104.607 249.936 104.521 249.88 104.41C249.361 103.412 248.741 102.471 248.03 101.6C247.959 101.508 247.92 101.396 247.92 101.28V97.7999L242.92 94.4799L239.75 95.8799C239.637 95.9203 239.513 95.9203 239.4 95.8799C238.316 95.5669 237.204 95.3626 236.08 95.2699C235.96 95.2557 235.848 95.2031 235.76 95.1199L233.76 93.0199L227.86 94.2199L226.81 96.9999C226.768 97.1145 226.686 97.2103 226.58 97.2699C225.577 97.7851 224.632 98.4052 223.76 99.1199C223.717 99.1589 223.666 99.1888 223.611 99.2077C223.556 99.2266 223.498 99.2341 223.44 99.2299L219.97 99.1799L216.64 104.18L218.04 107.36C218.072 107.427 218.089 107.501 218.089 107.575C218.089 107.649 218.072 107.723 218.04 107.79C217.744 108.846 217.549 109.927 217.46 111.02C217.451 111.141 217.397 111.255 217.31 111.34L215.21 113.34L216.41 119.24L219.13 120.3C219.251 120.35 219.351 120.443 219.41 120.56C219.926 121.551 220.542 122.486 221.25 123.35C221.324 123.44 221.363 123.553 221.36 123.67V127.15L226.36 130.47L229.54 129.07C229.592 129.037 229.65 129.013 229.71 129V129ZM234.62 125.76C232.213 125.758 229.852 125.103 227.787 123.866C225.722 122.63 224.031 120.856 222.893 118.735C221.756 116.614 221.214 114.224 221.326 111.82C221.438 109.415 222.2 107.086 223.53 105.08V105.08C224.802 103.155 226.552 101.594 228.608 100.548C230.665 99.5022 232.957 99.0081 235.262 99.114C237.567 99.2198 239.804 99.922 241.756 101.152C243.708 102.382 245.308 104.097 246.398 106.13C247.488 108.163 248.032 110.445 247.977 112.751C247.921 115.057 247.268 117.31 246.081 119.288C244.894 121.266 243.214 122.903 241.205 124.037C239.196 125.172 236.927 125.765 234.62 125.76ZM224.37 105.63C223.024 107.661 222.31 110.045 222.319 112.482C222.328 114.918 223.059 117.297 224.42 119.318C225.781 121.339 227.711 122.911 229.965 123.835C232.22 124.759 234.697 124.995 237.085 124.511C239.473 124.027 241.664 122.846 243.381 121.117C245.098 119.389 246.263 117.19 246.731 114.798C247.198 112.407 246.945 109.931 246.006 107.683C245.066 105.435 243.48 103.517 241.45 102.17C240.104 101.269 238.592 100.643 237.002 100.329C235.413 100.015 233.777 100.019 232.189 100.341C230.601 100.663 229.093 101.296 227.751 102.203C226.408 103.111 225.26 104.276 224.37 105.63V105.63Z" fill="white"/>
<path d="M425.83 154.65L410.13 152.53L420.51 74.7199L390.23 70.6399L316.78 138.26L312.92 167.19L376.21 175.73L373.05 199.4L403.33 203.48L406.49 179.82L422.19 181.94L425.83 154.65ZM346.41 143.93L385.17 108.6L379.85 148.44L346.41 143.93Z" fill="#41A4FF"/>
<path d="M394.13 202.74H394C393.87 202.716 393.755 202.641 393.68 202.532C393.605 202.424 393.576 202.29 393.6 202.16L417 74.2199C417.026 74.0914 417.102 73.9781 417.21 73.9036C417.318 73.8291 417.45 73.7991 417.58 73.8199C417.709 73.8442 417.824 73.9188 417.899 74.0275C417.974 74.1361 418.003 74.27 417.98 74.3999L394.63 202.33C394.607 202.445 394.544 202.55 394.453 202.624C394.362 202.699 394.248 202.74 394.13 202.74V202.74Z" fill="#263238"/>
<path d="M414.83 76.3699C414.822 76.5874 414.728 76.7928 414.569 76.941C414.409 77.0891 414.197 77.1679 413.98 77.16C413.763 77.152 413.557 77.058 413.409 76.8986C413.261 76.7392 413.182 76.5274 413.19 76.31C413.198 76.0925 413.292 75.8871 413.451 75.7389C413.611 75.5908 413.823 75.512 414.04 75.52C414.257 75.5279 414.463 75.6219 414.611 75.7813C414.759 75.9407 414.838 76.1525 414.83 76.3699Z" fill="#263238"/>
<path d="M411.5 93.67C411.494 93.832 411.44 93.9886 411.345 94.12C411.25 94.2514 411.118 94.3516 410.966 94.4081C410.814 94.4646 410.649 94.4747 410.491 94.4373C410.333 94.3998 410.19 94.3164 410.08 94.1977C409.969 94.0789 409.897 93.9301 409.871 93.77C409.845 93.61 409.867 93.4459 409.935 93.2984C410.002 93.151 410.112 93.0268 410.25 92.9417C410.388 92.8565 410.548 92.8142 410.71 92.82C410.817 92.8239 410.923 92.8489 411.021 92.8937C411.119 92.9386 411.208 93.0023 411.281 93.0812C411.354 93.1602 411.411 93.2528 411.449 93.3538C411.487 93.4548 411.504 93.5623 411.5 93.67Z" fill="#263238"/>
<path d="M408.17 111C408.166 111.108 408.141 111.214 408.096 111.312C408.051 111.41 407.988 111.498 407.909 111.571C407.83 111.645 407.737 111.702 407.636 111.739C407.535 111.777 407.428 111.794 407.32 111.79C407.213 111.787 407.107 111.764 407.009 111.72C406.911 111.676 406.823 111.613 406.749 111.535C406.676 111.457 406.619 111.365 406.581 111.265C406.543 111.164 406.526 111.057 406.53 110.95C406.532 110.841 406.557 110.734 406.601 110.635C406.645 110.536 406.709 110.447 406.788 110.372C406.867 110.298 406.96 110.24 407.061 110.202C407.163 110.164 407.271 110.146 407.38 110.15C407.596 110.16 407.8 110.255 407.948 110.414C408.096 110.573 408.175 110.783 408.17 111Z" fill="#263238"/>
<path d="M401.61 129C401.588 129.2 401.492 129.386 401.342 129.52C401.192 129.655 400.997 129.729 400.795 129.729C400.593 129.729 400.399 129.655 400.248 129.52C400.098 129.386 400.002 129.2 399.98 129C399.967 128.885 399.979 128.769 400.014 128.659C400.049 128.55 400.107 128.448 400.184 128.363C400.261 128.277 400.355 128.208 400.46 128.161C400.566 128.114 400.68 128.089 400.795 128.089C400.91 128.089 401.024 128.114 401.13 128.161C401.235 128.208 401.329 128.277 401.406 128.363C401.483 128.448 401.541 128.55 401.576 128.659C401.611 128.769 401.623 128.885 401.61 129V129Z" fill="#263238"/>
<path d="M401.5 145.57C401.497 145.678 401.473 145.785 401.429 145.883C401.384 145.982 401.321 146.071 401.241 146.144C401.162 146.218 401.069 146.275 400.967 146.312C400.866 146.349 400.758 146.365 400.65 146.36C400.488 146.354 400.331 146.3 400.2 146.205C400.068 146.11 399.968 145.978 399.912 145.826C399.855 145.674 399.845 145.509 399.883 145.351C399.92 145.193 400.003 145.05 400.122 144.94C400.241 144.829 400.39 144.757 400.55 144.731C400.71 144.705 400.874 144.727 401.021 144.795C401.169 144.862 401.293 144.972 401.378 145.11C401.463 145.248 401.506 145.408 401.5 145.57Z" fill="#263238"/>
<path d="M398.17 162.87C398.166 163.032 398.114 163.19 398.02 163.323C397.926 163.456 397.795 163.557 397.643 163.615C397.491 163.673 397.325 163.685 397.167 163.649C397.008 163.612 396.864 163.53 396.753 163.411C396.642 163.293 396.568 163.144 396.541 162.984C396.515 162.823 396.536 162.658 396.604 162.51C396.671 162.362 396.781 162.238 396.919 162.152C397.057 162.067 397.218 162.024 397.38 162.03C397.596 162.038 397.8 162.13 397.948 162.288C398.096 162.445 398.175 162.654 398.17 162.87V162.87Z" fill="#263238"/>
<path d="M394.84 180.17C394.832 180.388 394.738 180.595 394.579 180.745C394.42 180.894 394.208 180.975 393.99 180.97C393.882 180.966 393.776 180.941 393.678 180.896C393.58 180.851 393.492 180.788 393.419 180.709C393.345 180.63 393.288 180.537 393.251 180.436C393.213 180.335 393.196 180.228 393.2 180.12C393.203 180.012 393.228 179.906 393.272 179.808C393.316 179.71 393.379 179.621 393.458 179.547C393.536 179.474 393.628 179.416 393.729 179.378C393.83 179.34 393.937 179.322 394.045 179.325C394.152 179.328 394.258 179.353 394.357 179.397C394.455 179.441 394.543 179.504 394.617 179.583C394.691 179.661 394.749 179.754 394.787 179.854C394.825 179.955 394.843 180.062 394.84 180.17V180.17Z" fill="#263238"/>
<path d="M391.5 197.48C391.494 197.642 391.44 197.799 391.345 197.93C391.25 198.061 391.118 198.162 390.966 198.218C390.814 198.275 390.649 198.285 390.491 198.247C390.333 198.21 390.19 198.126 390.08 198.008C389.969 197.889 389.897 197.74 389.871 197.58C389.845 197.42 389.867 197.256 389.935 197.108C390.002 196.961 390.112 196.837 390.25 196.752C390.388 196.666 390.548 196.624 390.71 196.63C390.818 196.632 390.924 196.657 391.023 196.701C391.122 196.745 391.21 196.809 391.284 196.888C391.358 196.967 391.415 197.061 391.452 197.162C391.489 197.264 391.505 197.372 391.5 197.48V197.48Z" fill="#263238"/>
<path d="M400.79 129.45C400.677 129.45 400.568 129.411 400.481 129.34C400.393 129.269 400.333 129.17 400.31 129.06C400.295 128.996 400.293 128.929 400.305 128.864C400.316 128.799 400.34 128.737 400.375 128.681C400.41 128.625 400.456 128.577 400.51 128.539C400.564 128.501 400.625 128.474 400.69 128.46L403.17 127.93C403.235 127.915 403.302 127.914 403.368 127.926C403.434 127.937 403.496 127.962 403.552 127.999C403.608 128.035 403.656 128.082 403.694 128.137C403.731 128.192 403.757 128.255 403.77 128.32C403.783 128.384 403.783 128.451 403.771 128.515C403.758 128.58 403.733 128.641 403.697 128.696C403.661 128.75 403.614 128.798 403.56 128.834C403.505 128.871 403.444 128.897 403.38 128.91L400.9 129.44L400.79 129.45Z" fill="#263238"/>
<path d="M409.08 120.24C407.9 123.3 406.899 126.425 406.08 129.6C405.33 133.13 405.29 141.03 405.29 141.03" fill="#263238"/>
<path d="M405.29 141.53C405.157 141.525 405.032 141.469 404.939 141.374C404.846 141.279 404.792 141.153 404.79 141.02C404.79 140.7 404.85 133.02 405.6 129.5C406.414 126.297 407.416 123.145 408.6 120.06C408.62 119.994 408.653 119.933 408.698 119.881C408.743 119.828 408.798 119.786 408.859 119.756C408.921 119.726 408.989 119.709 409.057 119.706C409.126 119.703 409.195 119.714 409.259 119.739C409.323 119.764 409.381 119.802 409.43 119.85C409.479 119.898 409.517 119.956 409.543 120.02C409.568 120.084 409.58 120.153 409.578 120.221C409.576 120.29 409.56 120.358 409.53 120.42C408.352 123.456 407.35 126.558 406.53 129.71C405.8 133.15 405.75 140.95 405.74 141.03C405.741 141.154 405.695 141.274 405.612 141.367C405.528 141.459 405.414 141.517 405.29 141.53Z" fill="#263238"/>
<path d="M222.45 227.84C223.84 205.44 221.29 164.71 263.4 170.11C308.53 175.88 295.62 228.66 295.62 228.66L222.45 227.84Z" fill="#263238"/>
<path d="M251.51 214.38C261.661 214.38 269.89 206.151 269.89 196C269.89 185.849 261.661 177.62 251.51 177.62C241.359 177.62 233.13 185.849 233.13 196C233.13 206.151 241.359 214.38 251.51 214.38Z" fill="white"/>
<path d="M253.93 177.65C245.22 176.17 235.93 182.58 235 189.08L269.51 192.26C268.29 184.85 260.83 178.83 253.93 177.65Z" fill="#263238"/>
<path d="M265.58 195.54C265.33 200.35 262.71 204.12 259.73 203.96C256.75 203.8 254.53 199.79 254.73 194.96C254.93 190.13 257.6 186.38 260.58 186.54C263.56 186.7 265.82 190.74 265.58 195.54Z" fill="#263238"/>
<path d="M251.51 215.38C247.677 215.38 243.93 214.243 240.743 212.114C237.556 209.984 235.072 206.958 233.606 203.416C232.139 199.875 231.755 195.978 232.503 192.219C233.251 188.46 235.096 185.007 237.807 182.296C240.517 179.586 243.97 177.74 247.73 176.992C251.489 176.245 255.386 176.628 258.927 178.095C262.468 179.562 265.495 182.046 267.624 185.233C269.754 188.42 270.89 192.167 270.89 196C270.885 201.138 268.842 206.065 265.208 209.698C261.575 213.331 256.649 215.375 251.51 215.38V215.38ZM251.51 178.63C248.073 178.63 244.712 179.65 241.854 181.56C238.995 183.47 236.768 186.185 235.452 189.361C234.137 192.538 233.794 196.033 234.465 199.404C235.136 202.776 236.793 205.873 239.224 208.303C241.656 210.733 244.754 212.388 248.126 213.057C251.498 213.727 254.993 213.381 258.168 212.064C261.344 210.747 264.058 208.518 265.966 205.659C267.875 202.799 268.892 199.438 268.89 196C268.885 191.393 267.052 186.977 263.793 183.72C260.535 180.463 256.117 178.633 251.51 178.63V178.63Z" fill="#41A4FF"/>
<path opacity="0.3" d="M290.49 227.28H290.37C290.306 227.266 290.245 227.239 290.192 227.201C290.138 227.163 290.092 227.114 290.058 227.058C290.023 227.002 290 226.94 289.991 226.875C289.981 226.81 289.984 226.744 290 226.68C290 226.55 293.22 212.99 289.91 199.28C289.878 199.147 289.901 199.008 289.972 198.891C290.043 198.775 290.158 198.692 290.29 198.66C290.423 198.628 290.563 198.65 290.679 198.722C290.795 198.793 290.878 198.907 290.91 199.04C294.28 213.04 291.03 226.78 291 226.91C290.971 227.021 290.904 227.118 290.811 227.185C290.718 227.253 290.605 227.286 290.49 227.28V227.28Z" fill="white"/>
<path opacity="0.3" d="M287.7 191.76C287.604 191.759 287.51 191.731 287.429 191.68C287.348 191.629 287.283 191.556 287.24 191.47C285.997 188.723 284.404 186.148 282.5 183.81C282.417 183.708 282.378 183.577 282.391 183.446C282.404 183.315 282.469 183.194 282.57 183.11C282.621 183.067 282.68 183.035 282.743 183.016C282.807 182.996 282.874 182.99 282.94 182.996C283.006 183.003 283.07 183.022 283.128 183.054C283.187 183.085 283.238 183.128 283.28 183.18C285.231 185.586 286.868 188.23 288.15 191.05C288.179 191.109 288.195 191.173 288.198 191.238C288.202 191.304 288.192 191.369 288.169 191.431C288.147 191.492 288.113 191.549 288.068 191.597C288.023 191.645 287.97 191.683 287.91 191.71C287.844 191.741 287.773 191.758 287.7 191.76V191.76Z" fill="white"/>
<path d="M128.73 332.92H128.36C127.034 332.883 125.777 332.32 124.865 331.356C123.954 330.393 123.463 329.106 123.5 327.78C123.537 326.454 124.1 325.197 125.063 324.285C126.027 323.374 127.314 322.883 128.64 322.92H128.73C131.62 322.92 138.57 319.41 153.11 296.49C153.496 295.881 154.009 295.363 154.614 294.971C155.219 294.579 155.901 294.323 156.615 294.219C157.328 294.116 158.055 294.168 158.746 294.371C159.438 294.575 160.077 294.926 160.62 295.4C172.039 305.216 184.492 313.76 197.76 320.88C198.374 321.159 198.925 321.56 199.38 322.058C199.835 322.556 200.185 323.14 200.408 323.777C200.632 324.413 200.724 325.089 200.679 325.762C200.634 326.435 200.454 327.092 200.149 327.693C199.844 328.295 199.42 328.828 198.903 329.262C198.387 329.695 197.787 330.02 197.142 330.216C196.496 330.412 195.818 330.475 195.147 330.402C194.477 330.329 193.828 330.12 193.24 329.79C180.909 323.237 169.252 315.487 158.44 306.65C146.25 325 137.21 332.92 128.73 332.92Z" fill="#263238"/>
<path d="M159.67 294.5H159.24C158.454 294.386 157.746 293.965 157.269 293.33C156.793 292.694 156.589 291.896 156.7 291.11C157.41 286.11 156.53 267.48 150.22 252.98C149.94 252.339 149.893 251.621 150.086 250.949C150.28 250.277 150.702 249.694 151.28 249.3C164.98 239.97 194.16 238.85 195.4 238.81C195.794 238.797 196.187 238.861 196.556 239C196.925 239.139 197.263 239.349 197.551 239.618C197.839 239.887 198.071 240.21 198.233 240.569C198.396 240.928 198.487 241.316 198.5 241.71C198.513 242.104 198.449 242.497 198.31 242.866C198.171 243.235 197.961 243.573 197.692 243.86C197.423 244.148 197.099 244.38 196.74 244.543C196.382 244.706 195.994 244.797 195.6 244.81C195.33 244.81 169.82 245.81 156.72 253.01C162.3 267.45 163.57 285.44 162.64 291.95C162.532 292.66 162.173 293.308 161.628 293.776C161.083 294.244 160.388 294.501 159.67 294.5Z" fill="#263238"/>
<path d="M164.71 290.62C162.71 285.91 153.71 286.44 148.44 290.48C145.62 292.63 141.8 299.12 141.44 301.48C141.32 302.041 141.338 302.622 141.493 303.174C141.647 303.727 141.933 304.233 142.327 304.65C142.72 305.068 143.209 305.383 143.752 305.569C144.294 305.755 144.873 305.807 145.44 305.72C148.89 305.42 153.62 300.41 153.62 300.41C150.47 303.5 154.54 305.68 160.62 301.21C163.94 298.72 166.94 295.89 164.71 290.62Z" fill="#41A4FF"/>
<path d="M336.71 229.16C336.664 229.17 336.616 229.17 336.57 229.16C336.506 229.143 336.447 229.113 336.395 229.072C336.343 229.031 336.3 228.98 336.268 228.922C336.236 228.865 336.216 228.801 336.21 228.735C336.203 228.669 336.21 228.603 336.23 228.54C337.56 223.9 339.01 221.07 340.92 219.54C340.621 218.464 340.677 217.321 341.08 216.28C341.546 215.065 342.369 214.019 343.44 213.28C343.149 212.965 342.942 212.582 342.839 212.166C342.736 211.75 342.74 211.314 342.85 210.9C343.212 209.647 343.961 208.541 344.99 207.74C344.619 207.325 344.416 206.787 344.42 206.23C344.42 203.23 349.93 198.71 356.18 197.85C356.313 197.831 356.447 197.866 356.554 197.947C356.661 198.028 356.731 198.147 356.75 198.28C356.769 198.413 356.734 198.547 356.653 198.654C356.572 198.761 356.453 198.831 356.32 198.85C350.38 199.66 345.4 203.96 345.42 206.23C345.418 206.568 345.547 206.895 345.78 207.14C347.125 206.228 348.639 205.593 350.232 205.272C351.825 204.95 353.467 204.95 355.06 205.27C358.13 205.86 359.38 206.51 359.24 207.44C358.96 209.19 352.43 209.56 348.05 209.04C347.265 208.969 346.502 208.748 345.8 208.39C344.857 209.061 344.156 210.019 343.8 211.12C343.714 211.411 343.715 211.721 343.802 212.013C343.889 212.304 344.058 212.563 344.29 212.76C346.15 211.76 348.76 211.4 352.21 212.16C356.74 213.16 356.91 213.71 357.02 214.04C357.055 214.157 357.058 214.281 357.028 214.399C356.998 214.517 356.937 214.624 356.85 214.71C355.9 215.71 348.95 215.24 345.46 214.38C345.039 214.284 344.632 214.133 344.25 213.93C343.217 214.558 342.422 215.511 341.99 216.64C341.701 217.37 341.622 218.167 341.76 218.94C341.938 218.833 342.122 218.737 342.31 218.65C344.38 217.65 346.88 217.83 349.97 219.15C351.97 220.02 352.97 220.8 353.07 221.59C353.074 221.793 353.024 221.993 352.923 222.169C352.823 222.345 352.677 222.49 352.5 222.59C350.97 223.59 345.63 223.45 342.85 221.97C342.211 221.623 341.678 221.107 341.31 220.48C339.68 221.98 338.36 224.65 337.16 228.84C337.124 228.931 337.062 229.009 336.982 229.066C336.902 229.123 336.808 229.155 336.71 229.16V229.16ZM342.13 219.83C342.408 220.347 342.833 220.772 343.35 221.05C345.61 222.25 350.05 222.52 351.71 221.85C352.05 221.71 352.1 221.6 352.1 221.6C352.1 221.6 352.05 221.04 349.6 219.99C346.8 218.79 344.6 218.62 342.77 219.47C342.549 219.576 342.336 219.697 342.13 219.83V219.83ZM345.47 213.26L345.72 213.33C348.977 214.08 352.328 214.333 355.66 214.08C354.478 213.642 353.26 213.307 352.02 213.08C349.866 212.496 347.589 212.559 345.47 213.26V213.26ZM346.73 207.64C347.192 207.805 347.672 207.913 348.16 207.96C353.16 208.55 357.55 207.86 358.16 207.23C357.99 207.08 357.32 206.65 354.84 206.18C352.049 205.623 349.151 206.145 346.73 207.64V207.64Z" fill="#263238"/>
<path d="M206.53 331.25C207.19 331.04 206.97 330.4 206.23 330.4H192.69C166.91 327.67 148.9 331.33 160.25 332.19C171.6 333.05 159.45 332.87 151.16 336.01C142.87 339.15 212.81 339.94 219.16 336.01C225 332.39 197.39 334.18 206.53 331.25Z" fill="#263238"/>
<path d="M303.47 335.24L185.67 331.33L180.78 217.11L319.89 220.22L303.47 335.24Z" fill="#41A4FF"/>
<path d="M222.45 333.05C222.324 333.05 222.203 333.003 222.11 332.918C222.017 332.833 221.96 332.716 221.95 332.59L212.51 217.87C212.502 217.738 212.545 217.608 212.631 217.507C212.717 217.406 212.839 217.343 212.97 217.33C213.102 217.324 213.231 217.368 213.331 217.454C213.431 217.539 213.495 217.659 213.51 217.79L223 332.51C223.006 332.576 222.998 332.642 222.978 332.705C222.958 332.767 222.925 332.826 222.883 332.876C222.84 332.926 222.788 332.967 222.729 332.997C222.67 333.027 222.606 333.045 222.54 333.05H222.45Z" fill="#263238"/>
<path d="M303.47 335.24L335.13 330.42L345.1 224.21L319.89 220.22L303.47 335.24Z" fill="#41A4FF"/>
<path opacity="0.2" d="M303.47 335.24L335.13 330.42L345.1 224.21L319.89 220.22L303.47 335.24Z" fill="black"/>
<path d="M195.73 309.32L192.83 241.45C192.758 239.773 193.032 238.1 193.633 236.533C194.234 234.966 195.15 233.539 196.324 232.34C197.498 231.142 198.906 230.196 200.46 229.563C202.015 228.93 203.682 228.623 205.36 228.66L293.42 230.66C295.154 230.699 296.86 231.105 298.425 231.852C299.991 232.599 301.38 233.669 302.502 234.992C303.624 236.315 304.452 237.86 304.933 239.527C305.413 241.193 305.535 242.943 305.29 244.66L295.53 313C295.108 315.993 293.595 318.725 291.283 320.672C288.971 322.619 286.021 323.644 283 323.55L207.61 321.05C204.515 320.954 201.571 319.692 199.367 317.517C197.164 315.341 195.865 312.413 195.73 309.32V309.32Z" fill="#263238"/>
<path d="M205.25 249.49L218.87 249.92L218.76 253.43L210.23 253.16L210.15 255.78L218.06 256.03L217.95 259.39L210.04 259.13L209.94 262.38L218.71 262.66L218.59 266.38L204.72 265.94L205.25 249.49Z" fill="white"/>
<path d="M221.4 266.47L221.92 250.02L230.4 250.29C231.616 250.284 232.826 250.459 233.99 250.81C234.816 251.086 235.521 251.637 235.99 252.37C236.338 252.904 236.572 253.504 236.677 254.132C236.783 254.76 236.758 255.404 236.604 256.022C236.45 256.64 236.171 257.22 235.783 257.725C235.395 258.231 234.908 258.651 234.35 258.96C233.782 259.253 233.171 259.455 232.54 259.56C233.005 259.71 233.447 259.925 233.85 260.2C234.142 260.471 234.404 260.773 234.63 261.1C234.888 261.411 235.116 261.746 235.31 262.1L237.62 266.95L231.88 266.76L229.32 261.65C229.117 261.162 228.818 260.72 228.44 260.35C228.081 260.09 227.653 259.944 227.21 259.93H226.76L226.55 266.6L221.4 266.47ZM226.82 256.85L228.96 256.92C229.415 256.892 229.866 256.829 230.31 256.73C230.645 256.679 230.949 256.504 231.16 256.24C231.377 255.973 231.5 255.643 231.51 255.3C231.529 255.071 231.497 254.841 231.416 254.627C231.334 254.412 231.206 254.219 231.04 254.06C230.482 253.699 229.823 253.528 229.16 253.57L226.92 253.5L226.82 256.85Z" fill="white"/>
<path d="M239.28 267L239.8 250.55L248.27 250.82C249.486 250.813 250.696 250.988 251.86 251.34C252.687 251.613 253.394 252.165 253.86 252.9C254.368 253.701 254.606 254.644 254.54 255.59C254.543 256.388 254.33 257.172 253.923 257.859C253.517 258.545 252.932 259.109 252.23 259.49C251.661 259.781 251.051 259.983 250.42 260.09C250.882 260.239 251.32 260.455 251.72 260.73C252.019 260.993 252.285 261.292 252.51 261.62C252.766 261.933 252.993 262.267 253.19 262.62L255.5 267.46L249.76 267.28L247.2 262.17C246.996 261.683 246.697 261.241 246.32 260.87C245.963 260.6 245.528 260.453 245.08 260.45H244.64L244.42 267.13L239.28 267ZM244.69 257.38L246.84 257.44C247.295 257.423 247.747 257.362 248.19 257.26C248.523 257.21 248.824 257.035 249.03 256.77C249.254 256.508 249.378 256.175 249.38 255.83C249.402 255.602 249.372 255.372 249.292 255.157C249.213 254.943 249.085 254.749 248.92 254.59C248.363 254.22 247.697 254.048 247.03 254.1L244.8 254.03L244.69 257.38Z" fill="white"/>
<path d="M256.32 259.36C256.243 258.212 256.421 257.061 256.841 255.99C257.262 254.919 257.914 253.955 258.752 253.166C259.589 252.377 260.591 251.784 261.685 251.428C262.779 251.073 263.939 250.964 265.08 251.11C266.232 251.072 267.379 251.265 268.455 251.679C269.53 252.093 270.511 252.719 271.34 253.52C272.08 254.372 272.638 255.365 272.982 256.439C273.326 257.514 273.448 258.647 273.34 259.77C273.348 261.404 272.964 263.015 272.22 264.47C271.546 265.66 270.538 266.627 269.32 267.25C267.885 267.936 266.297 268.239 264.71 268.13C263.128 268.143 261.563 267.802 260.13 267.13C258.91 266.468 257.915 265.459 257.27 264.23C256.514 262.724 256.185 261.04 256.32 259.36V259.36ZM261.4 259.54C261.25 260.801 261.536 262.074 262.21 263.15C262.525 263.502 262.908 263.787 263.336 263.988C263.764 264.188 264.228 264.301 264.7 264.319C265.172 264.336 265.643 264.259 266.084 264.091C266.526 263.923 266.929 263.667 267.27 263.34C268.011 262.217 268.363 260.882 268.27 259.54C268.404 258.335 268.11 257.121 267.44 256.11C267.137 255.761 266.762 255.481 266.341 255.289C265.92 255.097 265.463 254.999 265 255C264.533 254.966 264.065 255.039 263.63 255.212C263.196 255.385 262.806 255.655 262.49 256C261.733 257.021 261.348 258.27 261.4 259.54V259.54Z" fill="white"/>
<path d="M275.91 268.21L276.43 251.75L284.9 252.02C286.116 252.018 287.325 252.193 288.49 252.54C289.313 252.821 290.018 253.37 290.49 254.1C290.995 254.902 291.233 255.844 291.17 256.79C291.175 257.59 290.963 258.376 290.556 259.064C290.149 259.753 289.563 260.318 288.86 260.7C288.288 260.983 287.679 261.182 287.05 261.29C287.513 261.442 287.951 261.661 288.35 261.94C288.649 262.203 288.914 262.502 289.14 262.83C289.398 263.141 289.625 263.476 289.82 263.83L292.13 268.68L286.39 268.5L283.83 263.38C283.627 262.895 283.327 262.456 282.95 262.09C282.591 261.822 282.158 261.671 281.71 261.66H281.27L281.05 268.34L275.91 268.21ZM281.32 258.58L283.47 258.65C283.925 258.633 284.377 258.572 284.82 258.47C285.151 258.417 285.451 258.242 285.66 257.98C285.896 257.701 286.021 257.345 286.01 256.98C286.032 256.754 286.002 256.525 285.922 256.312C285.842 256.099 285.715 255.907 285.55 255.75C284.992 255.38 284.327 255.208 283.66 255.26L281.43 255.19L281.32 258.58Z" fill="white"/>
<path d="M284 296.16C283.813 296.164 283.626 296.127 283.454 296.053C283.282 295.979 283.127 295.869 283 295.73L274.44 286.36L265.2 294.8C264.944 295.035 264.606 295.158 264.259 295.143C263.912 295.128 263.585 294.976 263.35 294.72L254.79 285.35L245.55 293.79C245.294 294.025 244.956 294.148 244.609 294.133C244.262 294.118 243.935 293.966 243.7 293.71L235.13 284.34L225.9 292.78C225.766 292.902 225.608 292.995 225.436 293.054C225.264 293.112 225.081 293.135 224.9 293.12C224.553 293.099 224.227 292.945 223.99 292.69L215.43 283.33L206.2 291.76C205.943 291.995 205.602 292.119 205.254 292.104C204.905 292.089 204.577 291.936 204.34 291.68C204.224 291.553 204.133 291.404 204.074 291.242C204.016 291.08 203.99 290.908 203.998 290.736C204.006 290.564 204.049 290.395 204.123 290.24C204.197 290.084 204.302 289.945 204.43 289.83L214.63 280.5C214.888 280.265 215.228 280.141 215.577 280.156C215.925 280.171 216.254 280.324 216.49 280.58L225.05 289.95L234.28 281.51C234.542 281.28 234.882 281.158 235.23 281.17C235.578 281.189 235.905 281.343 236.14 281.6L244.7 290.97L253.94 282.53C254.066 282.413 254.215 282.321 254.376 282.262C254.538 282.202 254.71 282.175 254.882 282.183C255.054 282.19 255.223 282.232 255.379 282.305C255.535 282.379 255.675 282.482 255.79 282.61L264.35 291.98L273.59 283.54C273.846 283.305 274.185 283.182 274.532 283.197C274.879 283.212 275.206 283.364 275.44 283.62L285 294C285.171 294.191 285.283 294.427 285.321 294.681C285.36 294.934 285.324 295.193 285.218 295.426C285.112 295.66 284.941 295.857 284.724 295.994C284.508 296.132 284.257 296.203 284 296.2V296.16Z" fill="white"/>
<path d="M125.75 337.67L119.49 334.68L113.91 307.51L116.94 304.18L125.75 337.67Z" fill="#41A4FF"/>
<path d="M125.75 337.67L134.06 332.81L126.94 310.43L116.94 304.18L125.75 337.67Z" fill="#41A4FF"/>
<path opacity="0.2" d="M125.75 337.67L134.06 332.81L126.94 310.43L116.94 304.18L125.75 337.67Z" fill="black"/>
<path d="M262 342.61H261.31C259.984 342.574 258.727 342.013 257.814 341.05C256.902 340.087 256.409 338.801 256.445 337.475C256.481 336.149 257.042 334.891 258.005 333.979C258.968 333.067 260.254 332.574 261.58 332.61C269.28 332.86 285.58 328.13 294.9 319.09C295.463 318.538 296.148 318.127 296.9 317.89C312.69 313.15 318.56 322.72 318.8 323.13L310.2 328.22C310.23 328.284 310.267 328.344 310.31 328.4C310.22 328.27 307.98 325.4 300.86 327.16C289.17 337.82 271.23 342.61 262 342.61Z" fill="#263238"/>
<path d="M261.39 349.25L243.18 348.11L241.75 314.53L266.22 315.44L261.39 349.25Z" fill="#41A4FF"/>
<path d="M261.39 349.25L265.65 345.01L268.29 324.08L266.22 315.44L261.39 349.25Z" fill="#41A4FF"/>
<path opacity="0.2" d="M261.39 349.25L265.65 345.01L268.29 324.08L266.22 315.44L261.39 349.25Z" fill="black"/>
<path d="M366.91 336.54C366.256 336.539 365.621 336.325 365.1 335.93C354.7 328.03 340.65 314 335.26 300.47C335.179 300.274 335.122 300.069 335.09 299.86C332.46 284.22 329.95 251.31 329.84 249.92C329.81 249.526 329.859 249.13 329.982 248.755C330.106 248.379 330.302 248.032 330.56 247.733C331.08 247.128 331.819 246.755 332.615 246.695C333.411 246.635 334.197 246.894 334.802 247.415C335.407 247.935 335.78 248.674 335.84 249.47C335.84 249.8 338.41 283.03 340.97 298.54C346.35 311.7 360.97 325.21 368.75 331.15C369.251 331.53 369.62 332.058 369.804 332.659C369.989 333.26 369.98 333.904 369.779 334.5C369.578 335.095 369.195 335.613 368.683 335.979C368.172 336.345 367.559 336.541 366.93 336.54H366.91Z" fill="#263238"/>
<path d="M380.78 338.05C378.46 338.05 375.83 337 372.96 334.93C372.316 334.463 371.883 333.759 371.757 332.974C371.632 332.188 371.823 331.384 372.29 330.74C372.757 330.095 373.461 329.663 374.246 329.537C375.032 329.412 375.836 329.603 376.48 330.07C378.96 331.86 380.31 332.07 380.78 332.07C381.576 332.07 382.339 332.386 382.901 332.949C383.464 333.511 383.78 334.274 383.78 335.07C383.78 335.866 383.464 336.629 382.901 337.191C382.339 337.754 381.576 338.07 380.78 338.07V338.05Z" fill="#263238"/>
<path d="M373.8 334.84C377.01 325.31 390.17 327.19 394.71 328.61C398.588 329.736 402.308 331.348 405.78 333.41C408.23 335.01 408.27 337.7 405 339.23C401 341.11 390.84 339.44 390.84 339.44C396.08 341.73 390.84 345.44 381.63 341.8C378.64 340.62 372.67 338.34 373.8 334.84Z" fill="#41A4FF"/>
<path d="M341.86 254C340.67 262.1 333.96 268.07 328.5 267.27C323.04 266.47 322.82 259.27 324.01 251.13C325.2 242.99 327.36 237.13 332.82 237.93C338.28 238.73 343.05 245.93 341.86 254Z" fill="#263238"/>
<path d="M209.88 221.7C210.333 221.7 210.7 221.333 210.7 220.88C210.7 220.427 210.333 220.06 209.88 220.06C209.427 220.06 209.06 220.427 209.06 220.88C209.06 221.333 209.427 221.7 209.88 221.7Z" fill="#263238"/>
<path d="M218.21 226.78C218.21 226.942 218.162 227.101 218.072 227.236C217.982 227.37 217.854 227.475 217.704 227.538C217.554 227.6 217.389 227.616 217.23 227.584C217.071 227.553 216.925 227.474 216.81 227.36C216.696 227.245 216.618 227.099 216.586 226.94C216.554 226.781 216.571 226.616 216.633 226.466C216.695 226.316 216.8 226.188 216.935 226.098C217.07 226.008 217.228 225.96 217.39 225.96C217.608 225.96 217.816 226.046 217.97 226.2C218.124 226.354 218.21 226.562 218.21 226.78Z" fill="#263238"/>
<path d="M219.13 323.68C219.13 323.842 219.082 324.001 218.992 324.136C218.902 324.27 218.774 324.376 218.624 324.438C218.474 324.5 218.309 324.516 218.15 324.484C217.991 324.453 217.845 324.375 217.73 324.26C217.616 324.145 217.538 323.999 217.506 323.84C217.474 323.681 217.491 323.516 217.553 323.366C217.615 323.216 217.72 323.088 217.855 322.998C217.99 322.908 218.148 322.86 218.31 322.86C218.528 322.86 218.736 322.946 218.89 323.1C219.044 323.254 219.13 323.463 219.13 323.68V323.68Z" fill="#263238"/>
<path d="M226.64 329.59C226.64 329.752 226.592 329.911 226.502 330.045C226.412 330.18 226.284 330.285 226.134 330.348C225.984 330.41 225.819 330.426 225.66 330.394C225.501 330.363 225.355 330.284 225.24 330.17C225.125 330.055 225.047 329.909 225.016 329.75C224.984 329.591 225 329.426 225.062 329.276C225.124 329.126 225.23 328.998 225.364 328.908C225.499 328.818 225.658 328.77 225.82 328.77C226.037 328.77 226.246 328.856 226.4 329.01C226.554 329.164 226.64 329.372 226.64 329.59Z" fill="#263238"/>
<path d="M82.51 339.42C81.0704 339.353 79.6643 338.963 78.3955 338.279C77.1268 337.595 76.0279 336.635 75.18 335.47C75.1385 335.416 75.1082 335.355 75.0912 335.289C75.0742 335.223 75.0707 335.155 75.081 335.088C75.0912 335.021 75.115 334.957 75.1509 334.899C75.1869 334.841 75.2341 334.792 75.2898 334.753C75.3455 334.714 75.4085 334.687 75.475 334.674C75.5415 334.66 75.61 334.66 75.6765 334.674C75.7429 334.688 75.8059 334.715 75.8615 334.754C75.9171 334.793 75.9642 334.842 76 334.9C77.87 337.6 82 339.03 83.8 338.18C83.9803 338.103 84.141 337.987 84.27 337.84C83.3605 337.44 82.5636 336.822 81.9497 336.04C81.3357 335.259 80.9237 334.338 80.75 333.36C80.52 332.09 80.34 330.36 81.38 330.14C82.82 329.82 84.7 333.29 85.38 335.92C85.5032 336.355 85.5472 336.809 85.51 337.26C86.0868 337.432 86.6935 337.48 87.29 337.4C87.5588 337.379 87.8204 337.303 88.058 337.175C88.2956 337.048 88.504 336.872 88.67 336.66C88.0119 336.163 87.466 335.533 87.0679 334.811C86.6699 334.089 86.4286 333.292 86.36 332.47C85.98 329.73 86.27 329.26 86.57 329.02C86.6672 328.945 86.7832 328.899 86.9051 328.887C87.027 328.875 87.1498 328.896 87.26 328.95C88.33 329.4 89.62 333.28 89.87 335.48C89.9 335.709 89.9 335.941 89.87 336.17C90.3011 336.336 90.7582 336.424 91.22 336.43C92.068 336.463 92.9067 336.244 93.63 335.8C93.49 335.71 93.36 335.61 93.23 335.51C92.23 334.62 91.77 333.2 91.95 331.18C92.09 329.61 92.44 328.75 93.07 328.48C93.2733 328.398 93.4958 328.378 93.7107 328.42C93.9255 328.463 94.1233 328.567 94.28 328.72C94.9551 329.465 95.4595 330.349 95.7583 331.309C96.0571 332.269 96.143 333.283 96.01 334.28C95.9232 334.695 95.7494 335.087 95.5 335.43C97.34 335.75 99.92 335.23 102.15 334.68C102.216 334.664 102.284 334.662 102.351 334.672C102.417 334.683 102.481 334.706 102.539 334.742C102.596 334.777 102.646 334.823 102.686 334.878C102.726 334.932 102.754 334.994 102.77 335.06C102.786 335.126 102.788 335.194 102.778 335.26C102.767 335.327 102.744 335.391 102.708 335.449C102.673 335.506 102.627 335.556 102.572 335.596C102.518 335.636 102.456 335.664 102.39 335.68C99.68 336.35 96.76 336.9 94.7 336.3C93.6945 337.064 92.4631 337.472 91.2 337.46C90.6395 337.453 90.0846 337.348 89.56 337.15C89.3274 337.51 89.0153 337.811 88.6477 338.032C88.2802 338.252 87.867 338.385 87.44 338.42C86.6883 338.517 85.9247 338.452 85.2 338.23C84.9667 338.623 84.6174 338.934 84.2 339.12C83.6637 339.336 83.0881 339.439 82.51 339.42V339.42ZM81.65 331.14C81.5117 331.82 81.5391 332.523 81.73 333.19C81.8711 333.99 82.2029 334.743 82.6973 335.387C83.1917 336.032 83.8341 336.547 84.57 336.89C84.556 336.653 84.5158 336.418 84.45 336.19C83.67 333.33 82.17 331.36 81.65 331.14V331.14ZM87.22 330.27C87.2265 330.96 87.2834 331.648 87.39 332.33C87.5003 333.549 88.0388 334.69 88.91 335.55C88.6639 333.704 88.0917 331.916 87.22 330.27V330.27ZM93.51 329.4C93.51 329.4 93.13 329.59 92.99 331.26C92.85 332.93 93.14 334.08 93.92 334.75C94.1046 334.899 94.306 335.027 94.52 335.13C94.783 334.849 94.969 334.504 95.06 334.13C95.2381 332.556 94.8129 330.973 93.87 329.7C93.66 329.44 93.54 329.4 93.51 329.4V329.4Z" fill="#263238"/>
<path d="M228.87 346.98L231.58 342.28L228.87 337.58H225.97L227.61 342.28L225.97 346.98H228.87Z" fill="#263238"/>
<path d="M226.16 344.73C225.826 344.751 225.491 344.704 225.176 344.591C224.86 344.478 224.572 344.301 224.327 344.072C224.083 343.843 223.888 343.566 223.755 343.259C223.622 342.951 223.554 342.62 223.554 342.285C223.554 341.95 223.622 341.619 223.755 341.311C223.888 341.004 224.083 340.727 224.327 340.498C224.572 340.269 224.86 340.092 225.176 339.979C225.491 339.866 225.826 339.819 226.16 339.84L221.56 338.92L220.33 342.64L222.39 345.78L226.16 344.73Z" fill="#263238"/>
<path d="M226.56 337.58H221.13L218.42 342.28L221.13 346.98H226.56L229.27 342.28L226.56 337.58ZM223.85 344.73C223.365 344.732 222.89 344.59 222.486 344.322C222.082 344.054 221.766 343.672 221.579 343.224C221.392 342.777 221.342 342.284 221.436 341.808C221.529 341.332 221.762 340.895 222.104 340.551C222.446 340.207 222.883 339.973 223.358 339.878C223.834 339.782 224.327 339.83 224.775 340.016C225.223 340.201 225.607 340.515 225.876 340.918C226.146 341.321 226.29 341.795 226.29 342.28C226.29 342.928 226.033 343.55 225.576 344.009C225.119 344.468 224.498 344.727 223.85 344.73V344.73Z" fill="#41A4FF"/>
<path d="M417.89 337.26L415.88 333.77L417.89 330.28H420.04L418.83 333.77L420.04 337.26H417.89Z" fill="#41A4FF"/>
<path d="M419.9 335.59C420.15 335.608 420.4 335.575 420.637 335.492C420.873 335.41 421.09 335.279 421.273 335.109C421.457 334.938 421.603 334.732 421.703 334.502C421.803 334.273 421.855 334.025 421.855 333.775C421.855 333.525 421.803 333.277 421.703 333.047C421.603 332.818 421.457 332.612 421.273 332.441C421.09 332.271 420.873 332.14 420.637 332.057C420.4 331.975 420.15 331.941 419.9 331.96L423.32 331.28L424.23 334.04L422.71 336.37L419.9 335.59Z" fill="#41A4FF"/>
<path d="M419.61 330.28H423.61L425.61 333.77L423.61 337.26H419.61L417.61 333.77L419.61 330.28ZM421.61 335.59C421.97 335.592 422.323 335.487 422.624 335.288C422.924 335.089 423.159 334.806 423.298 334.473C423.438 334.141 423.475 333.775 423.406 333.421C423.337 333.067 423.164 332.742 422.91 332.487C422.656 332.231 422.332 332.057 421.979 331.986C421.625 331.915 421.259 331.95 420.926 332.088C420.593 332.225 420.308 332.458 420.107 332.758C419.907 333.057 419.8 333.41 419.8 333.77C419.799 334.009 419.845 334.247 419.936 334.468C420.027 334.689 420.161 334.891 420.33 335.06C420.499 335.229 420.7 335.363 420.922 335.454C421.143 335.545 421.38 335.591 421.62 335.59H421.61Z" fill="#263238"/>
<path d="M343 341.9H347.52C348.086 341.897 348.627 341.671 349.027 341.27C349.426 340.869 349.65 340.326 349.65 339.76V339.76C349.65 339.194 349.426 338.651 349.027 338.25C348.627 337.849 348.086 337.623 347.52 337.62H343C342.432 337.62 341.888 337.845 341.487 338.247C341.085 338.648 340.86 339.192 340.86 339.76V339.76C340.86 340.327 341.085 340.872 341.487 341.273C341.888 341.674 342.432 341.9 343 341.9V341.9Z" fill="#263238"/>
<path d="M335.73 337.86C336.15 337.097 336.783 336.474 337.553 336.067C338.322 335.659 339.194 335.486 340.061 335.569C340.928 335.651 341.751 335.986 342.43 336.531C343.109 337.076 343.614 337.807 343.882 338.636C344.15 339.464 344.17 340.353 343.939 341.192C343.708 342.031 343.236 342.785 342.582 343.359C341.928 343.934 341.12 344.305 340.258 344.426C339.396 344.547 338.517 344.412 337.73 344.04C336.649 343.482 335.832 342.52 335.457 341.362C335.082 340.204 335.18 338.946 335.73 337.86Z" fill="#41A4FF"/>
<path d="M336.95 344.039L338.189 344.623L342.496 335.487L341.257 334.903L336.95 344.039Z" fill="#263238"/>
</svg>
